<?xml version='1.0' encoding='utf-8'?>
<svg xmlns="http://www.w3.org/2000/svg" width="218.88" height="86.39999999999999" viewBox="0 0 218.88 86.39999999999999">
  <path d="M2.88 -10.139999999999999Q2.88 -13.62 3.7199999999999998 -16.86Q5.7 -24.72 11.16 -30.0Q16.68 -35.28 22.74 -35.28Q26.88 -35.28 29.07 -32.7Q31.259999999999998 -30.119999999999997 31.259999999999998 -25.259999999999998Q31.259999999999998 -21.119999999999997 29.7 -16.259999999999998Q27.06 -8.7 22.02 -4.02Q16.919999999999998 0.84 11.459999999999999 0.84Q7.38 0.84 5.13 -2.04Q2.88 -4.92 2.88 -10.139999999999999ZM6.12 -8.219999999999999Q6.12 -0.18 11.82 -0.18Q16.2 -0.18 20.58 -4.92Q25.08 -9.66 27.72 -17.04Q29.7 -22.619999999999997 29.7 -26.82Q29.7 -30.419999999999998 28.11 -32.43Q26.52 -34.44 23.7 -34.44Q19.14 -34.44 14.58 -29.52Q10.139999999999999 -24.84 7.68 -17.22Q6.12 -12.18 6.12 -8.219999999999999Z" fill="currentColor" transform="translate(0, 55.62)" />
  <path d="M-0.84 -7.739999999999999Q-0.84 -9.959999999999999 -0.18 -12.719999999999999Q1.38 -18.599999999999998 5.46 -22.5Q9.719999999999999 -26.4 14.16 -26.4Q20.7 -26.4 20.7 -18.779999999999998Q20.7 -15.66 19.56 -12.299999999999999Q17.64 -6.779999999999999 13.8 -3.1799999999999997Q9.959999999999999 0.42 5.819999999999999 0.42Q2.6999999999999997 0.42 0.9299999999999999 -1.74Q-0.84 -3.9 -0.84 -7.739999999999999ZM2.46 -5.819999999999999Q2.46 -0.72 6.12 -0.72Q9.299999999999999 -0.72 12.48 -4.08Q15.66 -7.4399999999999995 17.58 -12.84Q19.08 -17.099999999999998 19.08 -20.34Q19.08 -25.5 14.94 -25.5Q11.52 -25.5 8.399999999999999 -22.02Q5.279999999999999 -18.54 3.6599999999999997 -13.02Q2.46 -8.94 2.46 -5.819999999999999Z" fill="currentColor" transform="translate(36.9, 55.62)" />
  <path d="M-5.7 11.52H-8.94L4.9799999999999995 -26.7H8.219999999999999L4.68 -17.04Q10.32 -26.4 15.899999999999999 -26.4Q18.36 -26.4 19.68 -24.689999999999998Q21.0 -22.98 21.0 -19.86Q21.0 -16.8 19.8 -13.2Q17.759999999999998 -6.72 13.26 -3.12Q8.82 0.42 4.32 0.42Q2.1 0.42 1.11 -0.69Q0.12 -1.7999999999999998 0.06 -4.26ZM18.0 -21.66Q18.0 -25.32 15.18 -25.32Q12.36 -25.32 8.82 -21.24Q5.58 -17.46 3.12 -12.18Q0.84 -6.96 0.84 -4.08Q0.84 -2.4 1.68 -1.41Q2.52 -0.42 3.96 -0.42Q6.42 -0.42 9.54 -3.0Q13.26 -6.0 15.959999999999999 -12.959999999999999Q18.0 -18.12 18.0 -21.66Z" fill="currentColor" transform="translate(63.72, 55.62)" />
  <path d="M3.36 0.42Q0.42 0.42 -1.23 -1.29Q-2.88 -3.0 -2.88 -5.9399999999999995Q-2.88 -8.16 -1.98 -10.2Q-1.08 -12.299999999999999 0.12 -13.139999999999999L9.36 -26.58Q9.9 -30.54 11.639999999999999 -30.54Q12.24 -30.54 12.69 -30.18Q13.139999999999999 -29.82 13.139999999999999 -29.34Q13.139999999999999 -28.68 12.36 -27.959999999999997Q10.559999999999999 -26.4 10.559999999999999 -24.78Q10.559999999999999 -23.16 12.42 -17.4Q13.5 -13.86 13.5 -10.62Q13.5 -4.56 9.18 -1.5Q6.54 0.42 3.36 0.42ZM9.84 -19.2Q9.24 -22.74 9.24 -24.54V-25.02L1.38 -13.62Q2.94 -13.62 2.94 -11.94Q2.94 -11.1 2.52 -10.53Q2.1 -9.959999999999999 1.5 -9.959999999999999Q1.44 -9.959999999999999 0.8999999999999999 -10.11Q0.36 -10.26 0.18 -10.26Q-0.78 -10.26 -1.38 -9.059999999999999Q-1.98 -7.859999999999999 -1.98 -6.0Q-1.98 -3.54 -0.63 -2.13Q0.72 -0.72 3.0 -0.72Q6.12 -0.72 8.1 -3.2399999999999998Q10.5 -6.18 10.5 -12.36Q10.5 -14.7 9.84 -19.2Z" fill="currentColor" transform="translate(90.84, 55.62)" />
  <path d="M24.66 -35.28Q27.3 -35.28 28.95 -33.63Q30.599999999999998 -31.98 30.599999999999998 -29.22Q30.599999999999998 -27.48 29.4 -23.759999999999998Q28.08 -20.099999999999998 26.7 -17.04Q25.38 -14.16 24.06 -9.9Q22.8 -6.12 22.8 -3.6599999999999997Q22.8 -0.18 26.16 -0.18Q28.86 -0.18 31.349999999999998 -2.67Q33.839999999999996 -5.16 37.14 -10.98L38.339999999999996 -13.02L38.879999999999995 -12.54L37.74 -10.559999999999999Q33.96 -4.02 31.56 -1.7999999999999998Q28.74 0.84 25.56 0.84Q19.56 0.84 19.56 -4.38Q19.56 -6.96 21.599999999999998 -12.18Q23.58 -17.64 25.56 -22.98Q27.599999999999998 -28.2 27.599999999999998 -30.54Q27.599999999999998 -32.339999999999996 26.669999999999998 -33.39Q25.74 -34.44 24.18 -34.44Q21.66 -34.44 19.11 -31.799999999999997Q16.56 -29.16 13.26 -23.4L12.18 -21.48L4.32 0.06H1.08L9.719999999999999 -23.759999999999998Q11.34 -28.439999999999998 11.34 -31.32Q11.34 -34.44 9.36 -34.44Q7.319999999999999 -34.44 5.04 -31.799999999999997Q2.6399999999999997 -28.98 0.6 -23.939999999999998L0.0 -24.3Q4.5 -35.28 9.959999999999999 -35.28Q14.1 -35.28 14.1 -29.4Q14.1 -27.66 13.44 -25.2Q16.68 -30.599999999999998 19.259999999999998 -32.94Q21.84 -35.28 24.66 -35.28Z" fill="currentColor" transform="translate(113.34, 55.62)" />
  <path d="M-0.84 -7.739999999999999Q-0.84 -9.959999999999999 -0.18 -12.719999999999999Q1.38 -18.599999999999998 5.46 -22.5Q9.719999999999999 -26.4 14.16 -26.4Q20.7 -26.4 20.7 -18.779999999999998Q20.7 -15.66 19.56 -12.299999999999999Q17.64 -6.779999999999999 13.8 -3.1799999999999997Q9.959999999999999 0.42 5.819999999999999 0.42Q2.6999999999999997 0.42 0.9299999999999999 -1.74Q-0.84 -3.9 -0.84 -7.739999999999999ZM2.46 -5.819999999999999Q2.46 -0.72 6.12 -0.72Q9.299999999999999 -0.72 12.48 -4.08Q15.66 -7.4399999999999995 17.58 -12.84Q19.08 -17.099999999999998 19.08 -20.34Q19.08 -25.5 14.94 -25.5Q11.52 -25.5 8.399999999999999 -22.02Q5.279999999999999 -18.54 3.6599999999999997 -13.02Q2.46 -8.94 2.46 -5.819999999999999Z" fill="currentColor" transform="translate(151.68, 55.62)" />
  <path d="M4.32 -25.08H-1.74V-25.919999999999998H4.68L6.72 -31.68H10.02L7.92 -25.919999999999998H14.459999999999999V-25.08H7.56L2.34 -10.62Q0.72 -6.12 0.72 -4.02Q0.72 -0.72 4.02 -0.72Q10.32 -0.72 16.08 -10.98L17.22 -13.02L17.82 -12.54L16.68 -10.559999999999999Q13.2 -4.56 10.2 -2.1Q7.08 0.42 3.48 0.42Q0.84 0.42 -0.5700000000000001 -1.08Q-1.98 -2.58 -1.98 -5.279999999999999Q-1.98 -7.739999999999999 -0.96 -10.62Z" fill="currentColor" transform="translate(178.5, 55.62)" />
  <path d="M22.619999999999997 -10.559999999999999Q16.2 0.42 7.5 0.42Q3.48 0.42 1.35 -1.68Q-0.78 -3.78 -0.78 -7.859999999999999Q-0.78 -10.26 -0.06 -12.78Q1.44 -18.66 5.3999999999999995 -22.5Q9.48 -26.4 13.74 -26.4Q15.959999999999999 -26.4 17.22 -25.35Q18.48 -24.3 18.48 -22.5Q18.48 -20.4 16.89 -18.54Q15.299999999999999 -16.68 12.48 -15.479999999999999Q9.06 -14.04 4.02 -14.04Q2.6399999999999997 -10.08 2.6399999999999997 -6.42Q2.6399999999999997 -3.36 3.9 -2.04Q5.16 -0.72 7.9799999999999995 -0.72Q12.24 -0.72 15.899999999999999 -3.6599999999999997Q19.74 -6.779999999999999 22.02 -10.98L23.16 -13.02L23.759999999999998 -12.54ZM16.62 -23.4Q16.62 -25.5 14.34 -25.5Q11.639999999999999 -25.5 8.82 -22.5Q6.18 -19.68 4.26 -14.82Q8.7 -14.879999999999999 11.4 -16.2Q13.559999999999999 -17.22 15.12 -19.2Q16.62 -21.06 16.62 -23.4Z" fill="currentColor" transform="translate(195.72, 55.62)" />
</svg>